<svg width="22" height="22" viewBox="0 0 22 22" fill="none" xmlns="http://www.w3.org/2000/svg">
<g id="more" clip-path="url(#clip0_205_161)">
<path id="Vector" d="M11.0001 7.33329C12.0084 7.33329 12.8334 6.50829 12.8334 5.49996C12.8334 4.49163 12.0084 3.66663 11.0001 3.66663C9.99175 3.66663 9.16675 4.49163 9.16675 5.49996C9.16675 6.50829 9.99175 7.33329 11.0001 7.33329ZM11.0001 9.16663C9.99175 9.16663 9.16675 9.99163 9.16675 11C9.16675 12.0083 9.99175 12.8333 11.0001 12.8333C12.0084 12.8333 12.8334 12.0083 12.8334 11C12.8334 9.99163 12.0084 9.16663 11.0001 9.16663ZM11.0001 14.6666C9.99175 14.6666 9.16675 15.4916 9.16675 16.5C9.16675 17.5083 9.99175 18.3333 11.0001 18.3333C12.0084 18.3333 12.8334 17.5083 12.8334 16.5C12.8334 15.4916 12.0084 14.6666 11.0001 14.6666Z" fill="black"/>
</g>
<defs>
<clipPath id="clip0_205_161">
<rect width="22" height="22" fill="white"/>
</clipPath>
</defs>
</svg>
